<?xml version="1.0" encoding="UTF-8"?>
<svg enable-background="new 0 0 136.93 136.927" viewBox="0 0 136.93 136.927" xmlns="http://www.w3.org/2000/svg">
 <defs>
  <radialGradient id="a" cx="66.348" cy="21.809" r="91.946" gradientUnits="userSpaceOnUse">
   <stop stop-color="#f28888" offset="0"/>
   <stop stop-color="#d82a2a" offset="1"/>
  </radialGradient>
 </defs>
 <path d="m132.99,99.316c-6.597-6.595-13.189-13.188-19.785-19.783l-9.864-9.865c-1.915-1.915-.106-2.309 1.725-4.14 8.093-8.095 16.188-16.19 24.281-24.283 2.697-2.7 5.927-5.249 6.376-9.333 .617-5.644-4.11-9.153-7.651-12.693-5.773-5.773-17.326-22.657-27.023-16.643-7.658,4.75-14.12,13.764-20.432,20.076l-10.436,10.434c-2.15,2.15-1.827,1.591-3.996-.576l-24.157-24.153c-2.328-2.328-4.845-5.592-8.057-6.692-6.127-2.095-10.011,2.47-13.826,6.281-5.602,5.602-21.684,16.598-18.467,26.012 1.098,3.213 4.361,5.729 6.688,8.059l13.212,13.212 10.945,10.947c2.167,2.167 2.726,1.845.576,3.996l-23.905,23.904c-2.152,2.152-4.979,4.335-6.608,6.962-3.749,6.042.466,10.843 4.523,14.898 5.48,5.48 15.905,20.748 24.816,19.772 8.071-.884 17.021-14.063 22.218-19.261l12.043-12.039c2.167-2.167 1.845-2.726 3.994-.575 8.245,8.242 16.489,16.485 24.732,24.729 2.883,2.883 5.76,6.67 10.104,7.146 5.642.617 9.15-4.11 12.691-7.65 5.942-5.942 24.881-19.152 15.283-28.742" fill="url(#a)"/>
 <path d="m32.108 5.382c2.126 2.13-22.226 24.48-25.087 26.422-4.748 3.223 4.856-9.947 5.78-10.959 1.488-1.628 16.647-18.123 19.307-15.463" fill="#ef5656"/>
 <path d="m38.985,73.616c2.172,2.18-28.186,30.286-31.196,32.637-1.428,1.116-3.703,2.102-2.241-.648 2.541-4.777 6.725-8.94 10.396-12.841 1.652-1.754 20.405-21.785 23.041-19.148" fill="#ef5656"/>
 <path d="m99.911,73.616c-2.167,2.172 28.184,30.286 31.193,32.637 1.429,1.116 3.705,2.102 2.243-.648-2.539-4.777-6.724-8.94-10.394-12.841-1.65-1.754-20.405-21.785-23.042-19.148" fill="#ef5656"/>
 <path d="m32.108 5.382c1.841-1.838 36.188 33.275 34.731 34.733-1.558 1.562-39.278-30.17-34.731-34.733" fill="#ef5656"/>
 <path d="m105.08 5.382c-2.129 2.132 22.224 24.48 25.086 26.422 4.746 3.223-4.855-9.947-5.781-10.959-1.485-1.626-16.649-18.123-19.305-15.463" fill="#ef5656"/>
 <path d="m105.08 5.382c-1.836-1.834-35.94 33.008-34.476 34.473 1.579 1.584 39.015-29.926 34.476-34.473" fill="#ef5656"/>
 <path d="m132.57 31.309c-1.838-1.838-20.787 18.733-22.4 20.36-3.009 3.038-7.01 6.294-9.028 10.148-1.559 2.978 5.516-1.839 5.892-2.13 3.065-2.374 29.68-24.242 25.536-28.378" fill="#b20d0d"/>
 <path d="m68.087 95.791c-1.589-1.594-19.854 17.809-21.491 19.445-4.685 4.684-9.672 9.238-13.859 14.391-2.32 2.854-1.628 4.019 1.6 1.941 3.205-2.06 37.682-31.851 33.75-35.777" fill="#b20d0d"/>
 <path d="m6.914 31.309c1.829-1.833 20.79 18.735 22.399 20.36 3.011 3.04 7.008 6.294 9.029 10.148 1.56 2.978-5.514-1.839-5.89-2.13-3.064-2.371-29.683-24.255-25.538-28.378" fill="#b20d0d"/>
 <path d="m71.536 95.937c1.603-1.607 19.133 17.082 20.689 18.639 4.686 4.684 9.672 9.24 13.857 14.39 2.317 2.855 1.627 4.018-1.599 1.942-3.206-2.061-36.933-30.998-32.947-34.971" fill="#b20d0d"/>
 <path d="m30.881.022c-7.374,0-14.027,9.615-18.709,14.297-5.675,5.674-16.408,13.272-10.383,22.412 3.84,5.826 10.373,10.68 15.26,15.567 5.387,5.388 10.777,10.771 16.161,16.163-8.732,8.721-17.454,17.452-26.181,26.179-4.257,4.257-8.981,8.757-6.191,15.486 2.154,5.201 8.574,9.712 12.414,13.552 3.698,3.698 7.337,8.499 11.725,11.435 6.522,4.365 12.054.048 16.563-4.459 8.978-8.978 17.962-17.951 26.934-26.934 8.722,8.732 17.454,17.454 26.181,26.179 4.257,4.255 8.753,8.979 15.485,6.191 5.199-2.153 9.711-8.571 13.552-12.412 3.697-3.697 8.499-7.335 11.434-11.723 4.325-6.462.058-12.045-4.458-16.563-8.979-8.978-17.952-17.96-26.935-26.932 8.722-8.732 17.454-17.456 26.182-26.183 4.242-4.242 8.927-8.711 6.212-15.419-2.119-5.23-8.59-9.774-12.435-13.62-3.701-3.699-7.355-8.548-11.768-11.46-6.517-4.301-12.021-.013-16.521,4.485-8.978,8.978-17.96,17.951-26.932,26.934l-18.39-18.392c-4.735-4.732-11.717-14.787-19.2-14.783m-5.93,132.153c-6.719-6.717-29.727-22.531-19.429-32.829 10.296-10.294 20.59-20.591 30.887-30.886l-19.661-19.66c-5.181-5.181-20.182-15.68-11.922-23.938l19.831-19.825c8.307-8.303 17.728,5.276 23.09,10.636l20.673,20.671c.104.104 17.34-17.238 18.626-18.522 5.156-5.156 16.596-21.437 24.944-13.079 7.122,5.452 13.205,13.201 19.557,19.548 8.67,8.668-4.56,17.713-10.288,23.443l-20.727,20.728c10.312,10.309 22.737,20.149 31.657,31.657 8.243,8.24-7.113,18.976-12.248,24.109-5.53,5.527-12.562,15.199-20.584,7.178l-19.953-19.952c-2.148-2.147-9.521-12.34-12.118-9.746l-20.585,20.584c-4.958,4.954-13.975,17.677-21.75,9.883" fill="#970f00"/>
</svg>
